<svg xmlns="http://www.w3.org/2000/svg" xmlns:xlink="http://www.w3.org/1999/xlink" width="194" height="40" viewBox="0 0 194 40"><defs><style>.a{fill:#8a152c;}.b{fill:#d2fffa;opacity:0;}.c{clip-path:url(#a);}.d{fill:#1d1d1b;}</style><clipPath id="a"><rect class="a" width="193" height="40"/></clipPath></defs><rect class="b" width="194" height="40"/><g class="c"><path class="d" d="M137.6,15.668h1.792V13.239h-2.059V11.448h2.731V9.019h-2.731V7.1h1.83V4.593H127.429c.219-.281.411-.562.587-.838L125.248,2.54a19.769,19.769,0,0,1-2.731,3.111,22,22,0,0,1-1.7,1.445l2.443,1.571c.277-.2.533-.422.832-.647v1h-2.71v2.429h2.71v1.792h-1.888v2.424h1.84a13.621,13.621,0,0,1-2.609,3.377l2.374,1.7a13.691,13.691,0,0,0,3.067-4.185l-1.856-.888h11.837l-1.9,1.049a25.2,25.2,0,0,1,2.635,3.859l2.614-1.24A17.192,17.192,0,0,0,137.6,15.668Zm-3.137-2.429h-.747V11.448h.725Zm-3.371-1.792v1.792h-.763V11.448Zm-.763-2.429V7.1h.763V9.019Zm4.134,0h-.747V7.1h.725ZM126.939,7.1h.741V9.019h-.741Zm0,4.346h.741v1.792h-.741Z" transform="translate(-12.88 7.936)"/><path class="d" d="M133,29.722a15.82,15.82,0,0,1,1.067,3.949l2.827-.587a11.053,11.053,0,0,0-1.307-3.985Z" transform="translate(-18.563 -5.295)"/><path class="d" d="M140,29.938a14.168,14.168,0,0,1,1.526,3.809l2.881-.682a12.131,12.131,0,0,0-1.632-3.854Z" transform="translate(-21.829 -5.35)"/><path class="d" d="M180.52,6.059h-8.775v.427L169.9,4.88a17.824,17.824,0,0,1-6.359,1.827h-.091V20.969h3.089v-.933h4.732v-2.85h-4.732V13.868h4.732V11.173h-4.732V8.839a20.466,20.466,0,0,0,5.206-1.611V21.907h3.126V8.789h2.5v8.4h-2.038L176.4,20.2h1.536a2.608,2.608,0,0,0,1.8-.647,2.31,2.31,0,0,0,.786-1.651Z" transform="translate(-32.769 6.771)"/><path class="d" d="M213.625,16.68c.245-.216.507-.437.757-.667a19.8,19.8,0,0,0,2.134-2.359l-.854-.778V5.2h-5.185V2.93h-3.366V5.2h-5.286V17.689c-.651.13-1.286.256-1.915.366l.635,2.976,1-.221a56.147,56.147,0,0,0,7.511-2.193V16.766a18.873,18.873,0,0,0,7.57,4.461l1.638-2.574A22.023,22.023,0,0,1,213.625,16.68Zm-1.3-5.761h-7.266v-.647h7.266Zm.491,2.509c-.235.281-.491.572-.763.863s-.437.452-.656.662a7.134,7.134,0,0,1-1.168-1.506ZM212.329,7.6v.657h-7.266V7.617Zm-7.266,9.339V13.449h1.6a10.556,10.556,0,0,0,1.664,2.564Q206.823,16.515,205.063,16.936Z" transform="translate(-49.78 7.742)"/><path class="d" d="M255.338,5.55H244.45v7.277h10.882Zm-7.884,2.4h4.881v2.384h-4.881Z" transform="translate(-70.561 6.437)"/><path class="d" d="M238,21.77v8.556h3v-.607h2.379v.607h3V21.8H238Zm3,5.52V24.279h2.379V27.29Z" transform="translate(-67.551 -1.643)"/><path class="d" d="M263.905,21.77H255.37v8.556h3.067v-.607h2.374v.607h3.067V21.8Zm-5.441,5.52V24.279h2.374V27.29Z" transform="translate(-75.655 -1.643)"/><path class="d" d="M103.36,39.069H93.58V.01h9.79Z" transform="translate(0 -0.001)"/><path class="d" d="M26.01,11.072l-5.61,28H13.55l-5.64-28v28L0,38.984V.009L12.06,0l4.9,24.421L21.86,0H34.34V39.069H26.01Z"/><path class="d" d="M64.62,29.3c0,6.745-5.84,10.659-13,10.659s-13-3.913-13-10.659L38.55,0h9.8V29.163a2.959,2.959,0,0,0,.949,2.155,3.386,3.386,0,0,0,4.582,0,2.959,2.959,0,0,0,.949-2.155V0h9.8Z"/><path class="d" d="M89.34,30.517c0,5.9-5.1,9.483-11.36,9.483s-11.35-3.584-11.35-9.483v-5.7h8.72v5.72a1.958,1.958,0,0,0,.671,1.327,2.229,2.229,0,0,0,2.907,0,1.958,1.958,0,0,0,.671-1.327V0h9.8Z"/></g></svg>